HIERARCHY
ROOT reference
{
  OFFSET 0 0 0
  CHANNELS 6 Xposition Yposition Zposition Zrotation Xrotation Yrotation
  JOINT Hips
  {
    OFFSET 387.421 88.6843 214.036
    CHANNELS 3 Zrotation Xrotation Yrotation
    JOINT RightUpLeg
    {
      OFFSET -9.26407 -1.54033 -0.0169218
      CHANNELS 3 Zrotation Xrotation Yrotation
      JOINT RightLeg
      {
        OFFSET 0.0262756 -41.889 0.0389421
        CHANNELS 3 Zrotation Xrotation Yrotation
        JOINT RightFoot
        {
          OFFSET -0.025595 -42.7244 0.117519
          CHANNELS 3 Zrotation Xrotation Yrotation
          End Site
          {
            OFFSET 0 -7.69 17.5
          }
        }
      }
    }
    JOINT LeftUpLeg
    {
      OFFSET 9.28488 -1.63184 0.00456132
      CHANNELS 3 Zrotation Xrotation Yrotation
      JOINT LeftLeg
      {
        OFFSET -0.00133996 -41.8929 0.0117795
        CHANNELS 3 Zrotation Xrotation Yrotation
        JOINT LeftFoot
        {
          OFFSET 0.253805 -40.8902 0.809143
          CHANNELS 3 Zrotation Xrotation Yrotation
          End Site
          {
            OFFSET 0 -7.69 17.5
          }
        }
      }
    }
    JOINT Spine
    {
      OFFSET 0.04218 14.2944 0.0529257
      CHANNELS 3 Zrotation Xrotation Yrotation
      JOINT Spine1
      {
        OFFSET 0.022284 9.72228 0.00997239
        CHANNELS 3 Zrotation Xrotation Yrotation
        JOINT Spine2
        {
          OFFSET 0.0397412 10.1199 -0.0103674
          CHANNELS 3 Zrotation Xrotation Yrotation
          JOINT Spine3
          {
            OFFSET 0.0389473 9.71765 -0.00772733
            CHANNELS 3 Zrotation Xrotation Yrotation
            JOINT Neck
            {
              OFFSET 0.0437972 10.3765 0.0320322
              CHANNELS 3 Zrotation Xrotation Yrotation
              JOINT Head
              {
                OFFSET 0.0431994 9.46781 0.0291763
                CHANNELS 3 Zrotation Xrotation Yrotation
                End Site
                {
                  OFFSET 0 15.95 0
                }
              }
            }
            JOINT RightShoulder
            {
              OFFSET -3.17206 6.93005 0.0018626
              CHANNELS 3 Zrotation Xrotation Yrotation
              JOINT RightArm
              {
                OFFSET -12.781 0.0116363 0.0199633
                CHANNELS 3 Zrotation Xrotation Yrotation
                JOINT RightForeArm
                {
                  OFFSET -26.5135 -0.0113607 0.0486864
                  CHANNELS 3 Zrotation Xrotation Yrotation
                  JOINT RightHand
                  {
                    OFFSET -25.9857 -0.0984063 0.163753
                    CHANNELS 3 Zrotation Xrotation Yrotation
                    JOINT RightHandThumb1
                    {
                      OFFSET -2.48905 0.190105 3.12053
                      CHANNELS 3 Zrotation Xrotation Yrotation
                      JOINT RightHandThumb2
                      {
                        OFFSET -3.68274 0 0
                        CHANNELS 3 Zrotation Xrotation Yrotation
                        JOINT RightHandThumb3
                        {
                          OFFSET -2.55832 0 0
                          CHANNELS 3 Zrotation Xrotation Yrotation
                          End Site
                          {
                            OFFSET -2.194 0 0
                          }
                        }
                      }
                    }
                    JOINT RightInHandIndex
                    {
                      OFFSET -3.22368 0.508421 1.97842
                      CHANNELS 3 Zrotation Xrotation Yrotation
                      JOINT RightHandIndex1
                      {
                        OFFSET -5.21684 -0.091368 0.999158
                        CHANNELS 3 Zrotation Xrotation Yrotation
                        JOINT RightHandIndex2
                        {
                          OFFSET -3.61937 0 0
                          CHANNELS 3 Zrotation Xrotation Yrotation
                          JOINT RightHandIndex3
                          {
                            OFFSET -2.0521 0 0
                            CHANNELS 3 Zrotation Xrotation Yrotation
                            End Site
                            {
                              OFFSET -1.805 0 0
                            }
                          }
                        }
                      }
                    }
                    JOINT RightInHandMiddle
                    {
                      OFFSET -3.38211 0.517263 0.756737
                      CHANNELS 3 Zrotation Xrotation Yrotation
                      JOINT RightHandMiddle1
                      {
                        OFFSET -5.17411 -0.084 0.313895
                        CHANNELS 3 Zrotation Xrotation Yrotation
                        JOINT RightHandMiddle2
                        {
                          OFFSET -3.94947 0 0
                          CHANNELS 3 Zrotation Xrotation Yrotation
                          JOINT RightHandMiddle3
                          {
                            OFFSET -2.47579 0 0
                            CHANNELS 3 Zrotation Xrotation Yrotation
                            End Site
                            {
                              OFFSET -1.975 0 0
                            }
                          }
                        }
                      }
                    }
                    JOINT RightInHandRing
                    {
                      OFFSET -3.36516 0.537895 -0.128947
                      CHANNELS 3 Zrotation Xrotation Yrotation
                      JOINT RightHandRing1
                      {
                        OFFSET -4.63474 -0.022105 -0.478947
                        CHANNELS 3 Zrotation Xrotation Yrotation
                        JOINT RightHandRing2
                        {
                          OFFSET -3.44238 0 0
                          CHANNELS 3 Zrotation Xrotation Yrotation
                          JOINT RightHandRing3
                          {
                            OFFSET -2.3881 0 0
                            CHANNELS 3 Zrotation Xrotation Yrotation
                            End Site
                            {
                              OFFSET -1.857 0 0
                            }
                          }
                        }
                      }
                    }
                    JOINT RightInHandPinky
                    {
                      OFFSET -3.16105 0.469368 -1.20179
                      CHANNELS 3 Zrotation Xrotation Yrotation
                      JOINT RightHandPinky1
                      {
                        OFFSET -4.14105 -0.022105 -1.09053
                        CHANNELS 3 Zrotation Xrotation Yrotation
                        JOINT RightHandPinky2
                        {
                          OFFSET -2.75653 0 0
                          CHANNELS 3 Zrotation Xrotation Yrotation
                          JOINT RightHandPinky3
                          {
                            OFFSET -1.74189 0 0
                            CHANNELS 3 Zrotation Xrotation Yrotation
                            End Site
                            {
                              OFFSET -1.645 0 0
                            }
                          }
                        }
                      }
                    }
                  }
                }
              }
            }
            JOINT LeftShoulder
            {
              OFFSET 3.23848 6.90919 -0.0119143
              CHANNELS 3 Zrotation Xrotation Yrotation
              JOINT LeftArm
              {
                OFFSET 12.8241 -0.0554782 -0.0520121
                CHANNELS 3 Zrotation Xrotation Yrotation
                JOINT LeftForeArm
                {
                  OFFSET 26.4865 -0.0658343 -0.0244543
                  CHANNELS 3 Zrotation Xrotation Yrotation
                  JOINT LeftHand
                  {
                    OFFSET 25.985 -0.0475988 -0.0124738
                    CHANNELS 3 Zrotation Xrotation Yrotation
                    JOINT LeftHandThumb1
                    {
                      OFFSET 2.48905 0.190105 3.12053
                      CHANNELS 3 Zrotation Xrotation Yrotation
                      JOINT LeftHandThumb2
                      {
                        OFFSET 3.68274 0 0
                        CHANNELS 3 Zrotation Xrotation Yrotation
                        JOINT LeftHandThumb3
                        {
                          OFFSET 2.55832 0 0
                          CHANNELS 3 Zrotation Xrotation Yrotation
                          End Site
                          {
                            OFFSET 2.194 0 0
                          }
                        }
                      }
                    }
                    JOINT LeftInHandIndex
                    {
                      OFFSET 3.22368 0.508421 1.97842
                      CHANNELS 3 Zrotation Xrotation Yrotation
                      JOINT LeftHandIndex1
                      {
                        OFFSET 5.21684 -0.091368 0.999158
                        CHANNELS 3 Zrotation Xrotation Yrotation
                        JOINT LeftHandIndex2
                        {
                          OFFSET 3.61937 0 0
                          CHANNELS 3 Zrotation Xrotation Yrotation
                          JOINT LeftHandIndex3
                          {
                            OFFSET 2.0521 0 0
                            CHANNELS 3 Zrotation Xrotation Yrotation
                            End Site
                            {
                              OFFSET 1.805 0 0
                            }
                          }
                        }
                      }
                    }
                    JOINT LeftInHandMiddle
                    {
                      OFFSET 3.38211 0.517263 0.756737
                      CHANNELS 3 Zrotation Xrotation Yrotation
                      JOINT LeftHandMiddle1
                      {
                        OFFSET 5.17411 -0.084 0.313895
                        CHANNELS 3 Zrotation Xrotation Yrotation
                        JOINT LeftHandMiddle2
                        {
                          OFFSET 3.94947 0 0
                          CHANNELS 3 Zrotation Xrotation Yrotation
                          JOINT LeftHandMiddle3
                          {
                            OFFSET 2.47579 0 0
                            CHANNELS 3 Zrotation Xrotation Yrotation
                            End Site
                            {
                              OFFSET 1.975 0 0
                            }
                          }
                        }
                      }
                    }
                    JOINT LeftInHandRing
                    {
                      OFFSET 3.36516 0.537895 -0.128947
                      CHANNELS 3 Zrotation Xrotation Yrotation
                      JOINT LeftHandRing1
                      {
                        OFFSET 4.63474 -0.022105 -0.478947
                        CHANNELS 3 Zrotation Xrotation Yrotation
                        JOINT LeftHandRing2
                        {
                          OFFSET 3.44238 0 0
                          CHANNELS 3 Zrotation Xrotation Yrotation
                          JOINT LeftHandRing3
                          {
                            OFFSET 2.3881 0 0
                            CHANNELS 3 Zrotation Xrotation Yrotation
                            End Site
                            {
                              OFFSET 1.857 0 0
                            }
                          }
                        }
                      }
                    }
                    JOINT LeftInHandPinky
                    {
                      OFFSET 3.16105 0.469368 -1.20179
                      CHANNELS 3 Zrotation Xrotation Yrotation
                      JOINT LeftHandPinky1
                      {
                        OFFSET 4.14105 -0.022105 -1.09053
                        CHANNELS 3 Zrotation Xrotation Yrotation
                        JOINT LeftHandPinky2
                        {
                          OFFSET 2.75653 0 0
                          CHANNELS 3 Zrotation Xrotation Yrotation
                          JOINT LeftHandPinky3
                          {
                            OFFSET 1.74189 0 0
                            CHANNELS 3 Zrotation Xrotation Yrotation
                            End Site
                            {
                              OFFSET 1.645 0 0
                            }
                          }
                        }
                      }
                    }
                  }
                }
              }
            }
          }
        }
      }
    }
  }
}
MOTION
Frames: 2
Frame Time: 0.00833333
9.000000000000000000e+02 0.000000000000000000e+00 0.000000000000000000e+00 0.000000000000000000e+00 0.000000000000000000e+00 0.000000000000000000e+00 3.448116398620775236e+00 -1.767265554534819538e-01 -2.765701488713538581e+01 2.742010062829496420e+01 -8.791950065133244507e+00 1.871649330425315938e+01 -3.340422197006363003e+00 4.265234455465421348e+00 5.654260372472013962e+00 -5.462926050133231293e+00 5.941077222042059347e+00 1.370764301803980878e+01 2.025933353467453912e+01 1.990600932539312362e+00 1.449215163594806377e+01 -1.294545188852619511e+01 6.544153798088789387e+00 1.483680114796463023e+01 6.981639180618440799e-01 -5.734763872959507403e+00 6.574014893023435668e+00 9.733115272335673973e-01 -8.570606789589923835e+00 -1.756502622798797830e+01 -5.246678587897229962e-02 -2.051032485573176078e+00 -4.446142649523612711e+00 5.897649192326072376e-02 -3.240525473137693790e+00 -7.419648429945818080e+00 -5.253599958588257568e-01 -2.361296547507599763e-01 2.221732806083444256e+00 -1.924014205031195246e+00 -2.227183422257055678e+00 1.915668153460628531e+01 -9.325971851257602196e+00 -1.880196840302927441e+00 2.915637614066548622e+01 7.155131840958813827e-01 6.441553959097134907e+00 -1.599899863675768863e+01 -1.027308792435685980e+01 -2.782005877254086101e+01 -3.708567053911978917e+01 7.699548988022320017e+00 -6.402235037464580003e+00 5.042100135613257805e+01 3.110682179644167267e+00 4.662116824267545923e+00 1.536847277515005494e+00 0.000000000000000000e+00 0.000000000000000000e+00 0.000000000000000000e+00 4.734000718356007444e-15 1.583138698339974568e-16 0.000000000000000000e+00 2.250033824463696958e-15 1.512432721370513598e-15 0.000000000000000000e+00 -3.406354590530658630e-15 -2.057451726124622608e-15 2.858248101427946704e-16 0.000000000000000000e+00 0.000000000000000000e+00 0.000000000000000000e+00 0.000000000000000000e+00 2.485132228732535415e-15 1.212997122978913742e-14 0.000000000000000000e+00 -5.188796288990268003e-16 -2.537528368424430533e-15 -3.406354590530658630e-15 -2.057451726124622608e-15 2.858248101427946704e-16 0.000000000000000000e+00 -4.181562019620912727e-17 2.369215751783275145e-15 0.000000000000000000e+00 2.245364126359343726e-15 6.179121509621233797e-15 0.000000000000000000e+00 -1.251881224040920974e-15 -1.319871138487892563e-15 -3.406354590530658630e-15 -2.057451726124622608e-15 2.858248101427946704e-16 0.000000000000000000e+00 0.000000000000000000e+00 0.000000000000000000e+00 0.000000000000000000e+00 -4.694541181612046471e-15 -1.052863287876626921e-14 0.000000000000000000e+00 -1.385877778009480447e-15 -2.761794570247071849e-15 -3.406354590530658630e-15 -2.057451726124622608e-15 2.858248101427946704e-16 0.000000000000000000e+00 0.000000000000000000e+00 0.000000000000000000e+00 0.000000000000000000e+00 6.083056065956171010e-15 9.496116601675383573e-15 0.000000000000000000e+00 -1.212319290873119804e-15 1.054109609031758392e-15 -5.623120844854493150e+00 -1.016898291123647491e+00 -1.011183326018327655e+01 3.048167422131543702e+01 1.345158077260812046e+00 -2.610705812257148040e+01 4.988736023094553929e+01 2.464335142320455674e+01 4.301361822793000300e+01 -7.080596626536415528e+00 2.917234746948792257e+00 7.761678776965319493e-01 0.000000000000000000e+00 0.000000000000000000e+00 0.000000000000000000e+00 1.561623242508718421e-15 7.652575672773796845e-16 0.000000000000000000e+00 -4.495154375233907993e-15 -1.408036029639019837e-15 0.000000000000000000e+00 -1.181283291866169330e-15 5.174401794230764870e-16 -3.025503581761911467e-16 0.000000000000000000e+00 0.000000000000000000e+00 0.000000000000000000e+00 0.000000000000000000e+00 3.619734508653935209e-15 -5.066219736992226960e-15 0.000000000000000000e+00 1.963061545488697468e-15 -2.632879065499081992e-15 -1.181283291866169330e-15 5.174401794230764870e-16 -3.025503581761911467e-16 0.000000000000000000e+00 8.815320768343070730e-16 -2.488267658274136944e-15 0.000000000000000000e+00 2.974944589575265595e-15 -6.581314249134472534e-15 0.000000000000000000e+00 1.529556578555497838e-15 -4.579607883566664847e-15 -1.181283291866169330e-15 5.174401794230764870e-16 -3.025503581761911467e-16 0.000000000000000000e+00 0.000000000000000000e+00 0.000000000000000000e+00 0.000000000000000000e+00 1.558796067463555341e-15 -4.788969518102749569e-15 0.000000000000000000e+00 5.134077104963876998e-15 -3.381668944909733187e-15 -1.181283291866169330e-15 5.174401794230764870e-16 -3.025503581761911467e-16 0.000000000000000000e+00 0.000000000000000000e+00 0.000000000000000000e+00 0.000000000000000000e+00 1.658948320763963838e-15 -5.653904580041763670e-15 0.000000000000000000e+00 1.025012992751391352e-15 -1.258233407941903820e-15
9.000000000000000000e+02 0.000000000000000000e+00 0.000000000000000000e+00 0.000000000000000000e+00 0.000000000000000000e+00 0.000000000000000000e+00 3.568819682013623762e+00 -7.630150072375731229e-02 -2.807386154944029144e+01 2.736394671682712598e+01 -9.155727567183900462e+00 1.860150395885743180e+01 -3.296784601115887448e+00 4.427656937617116206e+00 5.674062419711206395e+00 -5.445290312356828366e+00 5.740088029450655327e+00 1.375929946279232574e+01 2.038275025184776013e+01 1.735175611853915667e+00 1.454630713729977742e+01 -1.292160712744762030e+01 6.673444518020827942e+00 1.490329664744746729e+01 7.222161679191602124e-01 -5.718471734731323863e+00 6.764351814043202182e+00 1.026504217972467714e+00 -8.449949455555680444e+00 -1.795120933201919655e+01 -3.770428084659017964e-02 -2.011646453845290505e+00 -4.543704507981350282e+00 8.234609226527511705e-02 -3.171821112320802438e+00 -7.556954193595739611e+00 -5.293890255755234753e-01 -2.298756531655019864e-01 2.236024250012935699e+00 -1.955290742369319767e+00 -2.169181971410955700e+00 1.953174527236474489e+01 -9.381663349746347080e+00 -1.941954993640562233e+00 2.923767007822842601e+01 8.325569416562614844e-01 6.482482121092255412e+00 -1.617224270614121195e+01 -9.883455660765323003e+00 -2.790046917090143097e+01 -3.737566432926709581e+01 8.116773016906190463e+00 -6.508235609842223823e+00 5.022358981355794327e+01 2.958048230583643079e+00 4.388175368979452706e+00 1.624190468889850525e+00 0.000000000000000000e+00 0.000000000000000000e+00 0.000000000000000000e+00 4.731020918480544976e-15 1.433450142139354217e-16 0.000000000000000000e+00 2.200804263798204537e-15 1.443035361651128200e-15 0.000000000000000000e+00 -3.434775296441773695e-15 -2.055956223306409386e-15 2.735148096468880137e-16 0.000000000000000000e+00 0.000000000000000000e+00 0.000000000000000000e+00 0.000000000000000000e+00 2.420851438384726063e-15 1.201183818152224861e-14 0.000000000000000000e+00 -5.900724000045882156e-16 -2.472394721749455909e-15 -3.434775296441773695e-15 -2.055956223306409386e-15 2.735148096468880137e-16 0.000000000000000000e+00 -4.957080661977815504e-17 2.214881784540008782e-15 0.000000000000000000e+00 2.241979042708810665e-15 6.133934864165560855e-15 0.000000000000000000e+00 -1.240687675741971679e-15 -1.306631652432856688e-15 -3.434775296441773695e-15 -2.055956223306409386e-15 2.735148096468880137e-16 0.000000000000000000e+00 0.000000000000000000e+00 0.000000000000000000e+00 0.000000000000000000e+00 -4.412242400778386061e-15 -9.124080434489425227e-15 0.000000000000000000e+00 -1.384276752655033923e-15 -2.701961667684146882e-15 -3.434775296441773695e-15 -2.055956223306409386e-15 2.735148096468880137e-16 0.000000000000000000e+00 0.000000000000000000e+00 0.000000000000000000e+00 0.000000000000000000e+00 6.072831268424712893e-15 9.480800668273488403e-15 0.000000000000000000e+00 -1.151017847322165024e-15 1.162086008296045500e-15 -5.415178607444701697e+00 -1.020286442252739567e+00 -1.019541750123161705e+01 3.071872550931266588e+01 1.700082937274791206e+00 -2.631904535253273636e+01 4.970876988511206918e+01 2.473798789836951428e+01 4.396438126761010068e+01 -7.152346249203938910e+00 2.886108283667171204e+00 8.740385349185738617e-01 0.000000000000000000e+00 0.000000000000000000e+00 0.000000000000000000e+00 1.571898528265590723e-15 7.526421453703560418e-16 0.000000000000000000e+00 -4.479617810946369219e-15 -1.443976795359308425e-15 0.000000000000000000e+00 -1.179172222357222471e-15 4.734564658318658068e-16 -2.630299331978412157e-16 0.000000000000000000e+00 0.000000000000000000e+00 0.000000000000000000e+00 0.000000000000000000e+00 3.604662675388109306e-15 -5.033414140537084038e-15 0.000000000000000000e+00 1.931730729158375148e-15 -2.581133477417244508e-15 -1.179172222357222471e-15 4.734564658318658068e-16 -2.630299331978412157e-16 0.000000000000000000e+00 9.271509806154463119e-16 -2.452894864377528613e-15 0.000000000000000000e+00 2.910658092159901747e-15 -6.544631243034668014e-15 0.000000000000000000e+00 1.489141021586104827e-15 -4.515553371802001243e-15 -1.179172222357222471e-15 4.734564658318658068e-16 -2.630299331978412157e-16 0.000000000000000000e+00 0.000000000000000000e+00 0.000000000000000000e+00 0.000000000000000000e+00 1.515599981429346362e-15 -4.787613297493548208e-15 0.000000000000000000e+00 5.084090173585448658e-15 -3.393838339040563154e-15 -1.179172222357222471e-15 4.734564658318658068e-16 -2.630299331978412157e-16 0.000000000000000000e+00 0.000000000000000000e+00 0.000000000000000000e+00 0.000000000000000000e+00 1.613309839419703671e-15 -5.545685629759967366e-15 0.000000000000000000e+00 9.555374181824812507e-16 -1.226856155263485738e-15
